<?xml version="1.0" standalone="no"?>
<!DOCTYPE svg PUBLIC "-//W3C//DTD SVG 20010904//EN"
 "http://www.w3.org/TR/2001/REC-SVG-20010904/DTD/svg10.dtd">
<svg version="1.0" xmlns="http://www.w3.org/2000/svg"
 width="275.000000pt" height="183.000000pt" viewBox="0 0 275.000000 183.000000"
 preserveAspectRatio="xMidYMid meet">

<g transform="translate(0.000000,183.000000) scale(0.100000,-0.100000)"
fill="#000000" stroke="none">
<path d="M0 915 l0 -915 230 0 230 0 0 915 0 915 -230 0 -230 0 0 -915z"/>
<path d="M2290 915 l0 -915 230 0 230 0 0 915 0 915 -230 0 -230 0 0 -915z"/>
<path d="M1221 1759 c-259 -51 -485 -221 -601 -453 -72 -144 -93 -231 -93
-391 0 -101 5 -148 22 -210 27 -102 98 -243 161 -322 108 -134 284 -248 455
-294 113 -31 317 -31 429 0 306 82 544 324 617 626 30 123 30 297 0 410 -43
161 -123 297 -244 411 -120 115 -263 189 -425 220 -80 15 -251 17 -321 3z
m384 -48 c387 -114 643 -493 595 -883 -29 -244 -153 -451 -353 -589 -143 -99
-284 -142 -467 -142 -168 -1 -288 31 -421 112 -187 113 -326 297 -380 506 -28
106 -30 289 -4 390 79 313 320 550 631 619 97 22 304 15 399 -13z"/>
<path d="M1190 1669 c-254 -66 -452 -245 -541 -489 -16 -44 -31 -106 -34 -138
l-5 -57 14 70 c35 180 140 355 276 460 144 111 266 155 460 165 l135 7 -115 1
c-85 1 -135 -4 -190 -19z"/>
<path d="M1570 1659 c262 -68 467 -267 546 -529 13 -41 23 -66 23 -55 1 40
-56 183 -102 253 -108 166 -249 275 -431 331 -37 11 -78 21 -90 20 -11 0 13
-9 54 -20z"/>
<path d="M1321 1610 c0 -8 7 -49 14 -90 l14 -75 -5 75 c-3 41 -10 82 -15 90
-7 13 -8 13 -8 0z"/>
<path d="M1270 1602 c0 -5 5 -35 12 -66 9 -47 9 -59 -2 -66 -9 -5 -20 0 -32
13 -18 22 -18 22 -33 2 -21 -26 -14 -50 13 -49 42 1 24 -37 -28 -61 l-35 -16
34 6 c41 6 61 21 61 46 0 10 9 25 21 33 19 13 21 20 14 85 -4 39 -11 74 -16
77 -5 3 -9 1 -9 -4z m-35 -142 c-3 -5 -10 -10 -16 -10 -5 0 -9 5 -9 10 0 6 7
10 16 10 8 0 12 -4 9 -10z"/>
<path d="M1125 1544 l-50 -46 50 38 c66 50 71 54 59 54 -5 0 -32 -21 -59 -46z"/>
<path d="M1562 1540 c0 -19 2 -27 5 -17 2 9 2 25 0 35 -3 9 -5 1 -5 -18z"/>
<path d="M1398 1544 c-15 -15 -7 -20 22 -16 36 5 37 0 5 -32 -65 -65 1 -142
103 -120 36 8 35 8 -26 14 -37 4 -70 14 -79 23 -33 33 26 107 87 107 11 0 20
5 20 10 0 6 -8 10 -19 10 -10 0 -38 3 -62 6 -24 3 -47 2 -51 -2z"/>
<path d="M1621 1526 c2 -2 36 -6 74 -9 54 -4 61 -4 30 3 -40 9 -112 13 -104 6z"/>
<path d="M1035 1460 l59 -60 -22 -22 -22 -22 -30 29 c-33 32 -39 28 -14 -10
22 -33 11 -59 -21 -53 -22 5 -25 2 -25 -21 0 -55 -41 -66 -89 -25 -32 27 -42
27 -15 0 16 -16 10 -41 -7 -31 -5 4 -9 -5 -9 -19 0 -33 17 -34 31 -2 10 21 14
22 40 13 33 -13 59 4 62 41 1 15 8 22 22 22 26 0 45 18 38 36 -3 9 0 12 9 9
20 -8 91 48 114 90 17 31 17 37 4 45 -11 7 -21 3 -37 -16 -13 -14 -23 -30 -23
-37 1 -7 8 0 16 16 8 15 22 27 30 27 13 0 11 -5 -6 -30 -11 -16 -25 -32 -29
-34 -5 -3 -30 21 -57 54 -27 32 -56 59 -64 59 -8 1 12 -26 45 -59z"/>
<path d="M1554 1485 c-4 -8 -3 -26 0 -40 5 -19 15 -25 44 -30 76 -12 87 -18
92 -55 4 -31 9 -35 37 -38 24 -2 33 -9 37 -28 8 -32 21 -24 51 36 13 26 29 50
35 52 6 2 8 11 4 21 -5 13 -13 3 -35 -43 -27 -57 -57 -83 -46 -40 4 17 2 20
-13 15 -27 -9 -60 12 -60 37 0 16 3 18 13 9 8 -6 16 -8 19 -5 4 3 -18 30 -47
59 -40 40 -59 52 -74 48 -29 -8 -26 -21 6 -25 35 -4 43 -28 9 -28 -31 0 -70
35 -62 56 3 8 3 14 0 14 -2 0 -7 -7 -10 -15z"/>
<path d="M1775 1420 c-3 -5 -1 -10 4 -10 6 0 11 5 11 10 0 6 -2 10 -4 10 -3 0
-8 -4 -11 -10z"/>
<path d="M935 1410 c-3 -5 -1 -10 4 -10 6 0 11 5 11 10 0 6 -2 10 -4 10 -3 0
-8 -4 -11 -10z"/>
<path d="M1610 1359 c0 -5 5 -7 10 -4 6 3 10 8 10 11 0 2 -4 4 -10 4 -5 0 -10
-5 -10 -11z"/>
<path d="M1850 1303 c-29 -37 -41 -57 -26 -43 38 34 90 100 83 106 -2 3 -28
-26 -57 -63z"/>
<path d="M896 1344 c-4 -10 -1 -14 6 -12 15 5 23 28 10 28 -5 0 -13 -7 -16
-16z"/>
<path d="M1116 1266 c-9 -30 -16 -73 -16 -95 0 -49 26 -165 44 -201 8 -14 17
-47 21 -75 8 -55 28 -101 47 -108 9 -3 10 -8 3 -15 -6 -6 -37 -7 -85 -3 -41 5
-76 7 -78 6 -4 -3 81 -88 113 -113 20 -16 42 -22 76 -22 36 0 49 -4 49 -14 0
-8 5 -16 12 -18 18 -6 -1 -28 -25 -28 -12 0 -29 -5 -37 -10 -15 -10 -15 -10
69 -14 16 0 38 -9 49 -19 20 -18 21 -18 49 2 17 12 46 21 76 23 49 2 60 20 16
27 -29 4 -40 19 -33 47 3 12 -1 35 -9 50 -14 27 -14 28 25 48 33 15 44 17 59
8 16 -10 19 -9 19 8 0 10 -9 28 -20 38 -20 19 -20 19 19 31 58 17 167 128 224
226 25 44 44 81 43 82 -2 2 -30 -11 -62 -30 -77 -43 -158 -77 -183 -77 -11 0
-37 -15 -57 -32 -21 -18 -65 -49 -98 -70 -58 -35 -61 -35 -74 -17 -27 38 -202
388 -202 403 0 35 -19 13 -34 -38z m293 -648 c6 11 11 10 25 -3 23 -23 21 -29
-19 -59 -36 -28 -55 -27 -55 1 0 10 -6 13 -16 9 -8 -3 -12 -2 -9 3 3 5 1 12
-5 16 -19 12 -10 24 23 33 21 6 35 5 40 -2 5 -8 10 -7 16 2z"/>
<path d="M786 1294 c-9 -22 3 -32 14 -14 12 19 12 30 1 30 -5 0 -12 -7 -15
-16z"/>
<path d="M1000 1245 c-8 -9 -8 -15 -2 -15 12 0 26 19 19 26 -2 2 -10 -2 -17
-11z"/>
<path d="M1966 1252 c-3 -6 1 -13 10 -16 23 -9 28 -2 10 13 -8 7 -17 8 -20 3z"/>
<path d="M1870 1209 c6 -11 18 -23 26 -26 12 -4 11 -8 -6 -20 -27 -19 -25 -47
4 -66 17 -12 22 -22 19 -41 -4 -18 0 -28 11 -32 10 -4 16 -18 16 -40 0 -38 6
-41 38 -18 30 21 28 31 -13 48 -40 17 -50 56 -14 56 15 0 20 5 17 22 -4 27
-38 38 -38 12 0 -16 -1 -16 -20 1 -28 26 -25 39 18 76 20 17 32 29 25 25 -7
-4 -26 0 -42 9 -42 21 -54 20 -41 -6z m60 -15 c0 -2 -7 -4 -15 -4 -8 0 -15 4
-15 10 0 5 7 7 15 4 8 -4 15 -8 15 -10z m50 -204 c0 -5 -4 -10 -10 -10 -5 0
-10 5 -10 10 0 6 5 10 10 10 6 0 10 -4 10 -10z"/>
<path d="M827 1146 c-4 -10 -7 -25 -6 -34 0 -11 4 -9 10 7 5 13 8 29 6 35 -2
5 -6 2 -10 -8z"/>
<path d="M2011 1090 c23 -33 44 -58 46 -56 5 5 -75 116 -83 116 -3 0 14 -27
37 -60z"/>
<path d="M735 1070 c-3 -5 -1 -10 4 -10 6 0 11 5 11 10 0 6 -2 10 -4 10 -3 0
-8 -4 -11 -10z"/>
<path d="M790 1059 c0 -6 7 -9 15 -5 10 4 15 -1 15 -15 0 -19 -5 -20 -64 -17
-35 1 -62 0 -59 -4 2 -5 35 -8 73 -8 71 0 86 9 68 43 -10 19 -48 24 -48 6z"/>
<path d="M2142 1020 c0 -19 2 -27 5 -17 2 9 2 25 0 35 -3 9 -5 1 -5 -18z"/>
<path d="M775 980 c-3 -5 3 -10 14 -10 12 0 21 -7 21 -15 0 -13 -19 -19 -95
-28 -21 -3 -17 -5 15 -6 40 -1 43 -3 27 -15 -16 -13 -16 -14 -1 -20 13 -5 14
-10 6 -18 -6 -6 -8 -17 -5 -24 3 -8 -1 -22 -8 -30 -12 -15 -10 -16 18 -10 26
6 34 3 42 -13 14 -26 5 -49 -22 -54 -15 -3 -12 -5 10 -6 23 -1 33 4 38 18 8
26 -15 71 -37 71 -18 0 -20 6 -20 55 0 43 1 45 27 55 30 11 33 35 6 50 -24 12
-28 13 -36 0z"/>
<path d="M601 924 c0 -32 4 -79 9 -104 5 -30 6 -12 3 55 -6 111 -13 141 -12
49z"/>
<path d="M2153 915 c0 -33 2 -45 4 -27 2 18 2 45 0 60 -2 15 -4 0 -4 -33z"/>
<path d="M855 950 c4 -6 11 -8 16 -5 14 9 11 15 -7 15 -8 0 -12 -5 -9 -10z"/>
<path d="M1995 932 c-56 -31 -56 -30 -29 -139 17 -70 36 -99 32 -49 -1 13 6
42 16 65 18 40 18 42 1 61 -10 11 -23 20 -29 20 -6 0 -5 -5 2 -12 14 -14 16
-58 3 -58 -13 0 -31 58 -24 76 3 8 26 26 52 39 25 13 42 24 36 24 -5 0 -32
-12 -60 -27z"/>
<path d="M2056 810 c7 -40 24 -76 23 -50 0 8 -7 31 -15 50 l-14 35 6 -35z"/>
<path d="M2132 770 c-7 -42 -19 -88 -27 -104 -8 -16 -15 -33 -15 -40 0 -6 -20
-46 -45 -88 -103 -175 -266 -304 -460 -359 -33 -10 -53 -18 -44 -18 32 -2 126
32 199 71 151 81 267 200 340 352 40 82 74 201 68 240 -2 11 -9 -13 -16 -54z"/>
<path d="M1906 792 c-3 -6 -1 -14 5 -17 15 -10 25 3 12 16 -7 7 -13 7 -17 1z"/>
<path d="M621 759 c-2 -30 31 -125 67 -194 75 -143 193 -262 332 -334 82 -43
206 -82 255 -80 20 1 12 4 -24 10 -137 23 -279 93 -384 189 -101 93 -205 249
-194 291 3 10 0 17 -6 16 -6 -1 -19 25 -28 58 -10 33 -18 53 -18 44z"/>
<path d="M1193 560 c-3 -11 -12 -20 -20 -20 -14 0 -49 -68 -40 -77 3 -2 10 12
17 32 8 24 17 35 25 31 8 -3 17 4 21 17 4 12 12 25 18 29 7 5 7 8 -2 8 -8 0
-16 -9 -19 -20z"/>
<path d="M1558 551 c9 -16 21 -27 28 -24 7 2 17 -11 24 -32 7 -20 14 -34 17
-32 9 10 -27 77 -41 77 -8 0 -18 9 -21 20 -3 11 -10 20 -15 20 -5 0 -2 -13 8
-29z"/>
<path d="M801 554 c0 -11 3 -14 6 -6 3 7 2 16 -1 19 -3 4 -6 -2 -5 -13z"/>
<path d="M843 529 c24 -14 68 -19 61 -7 -3 5 -12 7 -20 4 -7 -3 -16 -1 -19 4
-4 6 -14 10 -23 10 -15 -1 -15 -2 1 -11z"/>
<path d="M1825 527 c12 -9 34 -13 54 -11 48 6 51 13 5 12 -22 -1 -48 3 -59 7
-20 7 -20 7 0 -8z"/>
<path d="M931 520 c10 -7 49 -2 49 5 0 2 -14 3 -31 3 -17 -1 -25 -4 -18 -8z"/>
<path d="M1938 523 c7 -3 16 -2 19 1 4 3 -2 6 -13 5 -11 0 -14 -3 -6 -6z"/>
<path d="M1110 489 c-7 -11 -10 -23 -7 -25 2 -2 9 7 15 21 14 30 7 33 -8 4z"/>
<path d="M1166 495 c-9 -26 -7 -32 5 -12 6 10 9 21 6 23 -2 3 -7 -2 -11 -11z"/>
<path d="M1370 426 l0 -87 -30 16 c-32 17 -54 20 -30 5 13 -9 13 -10 0 -11 -8
-1 -1 -5 15 -9 18 -5 -27 -8 -117 -9 -109 -1 -148 2 -151 12 -3 6 -6 2 -6 -10
-1 -23 0 -23 152 -23 106 0 157 -4 165 -12 9 -9 15 -9 24 0 8 8 59 12 165 12
129 0 153 2 153 15 0 18 -51 147 -56 142 -2 -2 7 -31 21 -65 14 -34 25 -64 25
-67 0 -3 -64 -5 -142 -4 -87 1 -133 4 -118 9 14 4 18 9 10 9 -13 1 -13 2 0 11
24 15 -2 11 -30 -5 -14 -8 -28 -14 -31 -15 -3 0 -6 36 -6 81 -1 44 -4 83 -7
87 -3 3 -6 -34 -6 -82z"/>
<path d="M1580 505 c0 -5 5 -17 10 -25 5 -8 10 -10 10 -5 0 6 -5 17 -10 25 -5
8 -10 11 -10 5z"/>
<path d="M1636 497 c3 -10 9 -15 12 -12 3 3 0 11 -7 18 -10 9 -11 8 -5 -6z"/>
<path d="M885 480 c-3 -5 -1 -10 4 -10 6 0 11 5 11 10 0 6 -2 10 -4 10 -3 0
-8 -4 -11 -10z"/>
<path d="M1855 470 c-3 -6 1 -7 9 -4 18 7 21 14 7 14 -6 0 -13 -4 -16 -10z"/>
<path d="M1136 420 c-20 -51 -20 -50 7 -49 16 1 18 2 5 6 -16 4 -16 7 -3 40 9
20 14 38 11 40 -2 2 -11 -14 -20 -37z"/>
<path d="M1600 455 c0 -5 5 -17 10 -25 5 -8 10 -10 10 -5 0 6 -5 17 -10 25 -5
8 -10 11 -10 5z"/>
<path d="M1086 435 c-9 -26 -7 -32 5 -12 6 10 9 21 6 23 -2 3 -7 -2 -11 -11z"/>
<path d="M1116 435 c-9 -26 -7 -32 5 -12 6 10 9 21 6 23 -2 3 -7 -2 -11 -11z"/>
<path d="M1636 431 c10 -37 33 -88 33 -71 0 8 -9 33 -20 55 -10 22 -16 29 -13
16z"/>
<path d="M1624 398 c3 -10 -1 -18 -12 -21 -12 -3 -11 -5 6 -6 24 -1 27 6 11
29 -9 13 -10 13 -5 -2z"/>
<path d="M1066 385 c-9 -26 -7 -32 5 -12 6 10 9 21 6 23 -2 3 -7 -2 -11 -11z"/>
<path d="M1096 385 c-3 -9 -6 -22 -5 -28 0 -7 5 -1 10 12 5 13 8 26 5 28 -2 2
-6 -3 -10 -12z"/>
<path d="M1198 383 c12 -2 30 -2 40 0 9 3 -1 5 -23 4 -22 0 -30 -2 -17 -4z"/>
<path d="M1528 383 c12 -2 30 -2 40 0 9 3 -1 5 -23 4 -22 0 -30 -2 -17 -4z"/>
<path d="M1268 373 c7 -3 16 -2 19 1 4 3 -2 6 -13 5 -11 0 -14 -3 -6 -6z"/>
<path d="M1478 373 c7 -3 16 -2 19 1 4 3 -2 6 -13 5 -11 0 -14 -3 -6 -6z"/>
<path d="M1153 353 c26 -2 68 -2 95 0 26 2 4 3 -48 3 -52 0 -74 -1 -47 -3z"/>
<path d="M1513 353 c26 -2 67 -2 90 0 23 2 2 3 -48 3 -49 0 -68 -1 -42 -3z"/>
<path d="M1385 150 l-80 -6 70 -2 c39 0 88 3 110 7 49 10 21 11 -100 1z"/>
</g>
</svg>
